<svg width="44" height="48" viewBox="0 0 44 48" fill="none" xmlns="http://www.w3.org/2000/svg">
<path d="M33.1452 45.5008H10.3175C8.98741 45.4999 7.67957 45.1186 6.51823 44.393C5.35688 43.6675 4.3806 42.6218 3.68208 41.3554C2.98356 40.0889 2.58601 38.6437 2.52717 37.157C2.46833 35.6703 2.75017 34.1914 3.34591 32.8608L6.42058 25.9608C6.80498 24.9524 7.41159 24.0694 8.18374 23.3943C8.95588 22.7193 9.86837 22.2743 10.8359 22.1008C11.8132 22.0402 12.7883 22.2579 13.6699 22.7336C14.5515 23.2093 15.3109 23.9274 15.877 24.8208L16.2702 25.3808C16.5531 25.8606 16.938 26.2542 17.3904 26.5265C17.8428 26.7988 18.3486 26.9411 18.8623 26.9408C19.3688 26.8458 19.8464 26.6114 20.252 26.2588C20.6576 25.9063 20.9786 25.4465 21.1861 24.9208L24.5647 18.1008C25.959 15.2808 27.8181 13.8208 29.8381 13.9208C31.8581 14.0208 33.5563 15.7208 34.7004 18.6808L40.2956 33.3008C40.8053 34.6278 41.0118 36.0759 40.8963 37.5144C40.7808 38.953 40.3471 40.3367 39.6341 41.5408C38.9391 42.7599 37.9796 43.7623 36.8449 44.4547C35.7103 45.1471 34.4376 45.507 33.1452 45.5008ZM11.3365 25.1008C11.2645 25.0975 11.1924 25.1043 11.122 25.1208C10.6042 25.2436 10.1221 25.5091 9.71935 25.8933C9.31663 26.2775 9.0061 26.7682 8.81596 27.3208L5.73414 34.2208C5.34077 35.0941 5.15395 36.0656 5.19149 37.0427C5.22903 38.0197 5.48968 38.9697 5.94859 39.802C6.40749 40.6343 7.04934 41.3212 7.81291 41.7972C8.57648 42.2731 9.43631 42.5223 10.3104 42.5208H33.1201C33.9667 42.5202 34.7998 42.2847 35.545 41.8353C36.2901 41.386 36.9241 40.7369 37.3899 39.9461C37.8558 39.1554 38.1391 38.2476 38.2144 37.3043C38.2897 36.361 38.1547 35.4115 37.8215 34.5408L32.2335 19.9168C31.5542 18.1168 30.6068 17.0168 29.6951 16.9768C28.8549 16.9168 27.7645 17.9168 26.9064 19.6168L23.5279 26.4368C23.1055 27.3906 22.4805 28.2139 21.7076 28.8346C20.9346 29.4552 20.0375 29.8543 19.0946 29.9968C18.1412 30.0385 17.1934 29.8156 16.3357 29.348C15.4779 28.8804 14.7369 28.1826 14.1788 27.3168L13.7855 26.7568C13.5191 26.2881 13.1594 25.8948 12.7346 25.6075C12.3097 25.3202 11.8312 25.1468 11.3365 25.1008Z" fill="#636B6A"/>
<path d="M12.7845 17.5C11.4587 17.5 10.1627 17.0601 9.06029 16.236C7.95791 15.4119 7.0987 14.2406 6.59133 12.8701C6.08396 11.4997 5.95121 9.99168 6.20986 8.53683C6.46852 7.08197 7.10696 5.7456 8.04446 4.6967C8.98196 3.64781 10.1764 2.9335 11.4768 2.64411C12.7771 2.35472 14.125 2.50325 15.3499 3.07091C16.5748 3.63856 17.6217 4.59986 18.3583 5.83323C19.0949 7.0666 19.488 8.51664 19.488 10C19.4843 11.9878 18.7768 13.893 17.5205 15.2986C16.2641 16.7042 14.5613 17.4958 12.7845 17.5ZM12.7845 5.5C11.9891 5.5 11.2114 5.76392 10.55 6.25839C9.88856 6.75286 9.37304 7.45566 9.06862 8.27793C8.76419 9.1002 8.68454 10.005 8.83974 10.8779C8.99493 11.7508 9.378 12.5526 9.9405 13.182C10.503 13.8113 11.2197 14.2399 11.9999 14.4135C12.7801 14.5872 13.5888 14.4981 14.3237 14.1575C15.0587 13.8169 15.6868 13.2401 16.1288 12.5001C16.5708 11.76 16.8066 10.89 16.8066 10C16.8052 8.80702 16.381 7.66335 15.627 6.81978C14.8731 5.97621 13.8508 5.50159 12.7845 5.5Z" fill="#636B6A"/>
</svg>
